<?xml version="1.0" encoding="utf-8"?>
<svg version="1.1" xmlns:xlink="http://www.w3.org/1999/xlink" width="40px" height="50px" xmlns="http://www.w3.org/2000/svg">
  <defs>
    <filter x="926px" y="362px" width="40px" height="50px" filterUnits="userSpaceOnUse" id="filter1">
      <feOffset dx="1" dy="1" in="SourceAlpha" result="shadowOffsetInner" />
      <feGaussianBlur stdDeviation="2.5" in="shadowOffsetInner" result="shadowGaussian" />
      <feComposite in2="shadowGaussian" operator="atop" in="SourceAlpha" result="shadowComposite" />
      <feColorMatrix type="matrix" values="0 0 0 0 0  0 0 0 0 0  0 0 0 0 0  0 0 0 0.6980392156862745 0  " in="shadowComposite" />
    </filter>
    <g id="widget2">
      <path d="M 945 405.0369284683536  C 939.2 395.4073405959099  930.5 389.6295878724437  930.5 380  C 930.5 374.98571428571427  933.4 366.5  945 366.5  C 956.6 366.5  959.5 374.98571428571427  959.5 380  C 959.5 389.6295878724437  950.8 395.4073405959099  945 405.0369284683536  Z " fill-rule="nonzero" fill="#00c2ff" stroke="none" />
      <path d="M 945 406  C 939 396  930 390  930 380  C 930 374.8  933 366  945 366  C 957 366  960 374.8  960 380  C 960 390  951 396  945 406  Z M 945 404.0738569367072  C 950.6 394.81468119181983  959 389.2591757448874  959 380  C 959 375.1714285714286  956.2 367  945 367  C 933.8 367  931 375.1714285714286  931 380  C 931 389.2591757448874  939.4 394.81468119181983  945 404.0738569367072  Z " fill-rule="nonzero" fill="#ffffff" stroke="none" />
    </g>
  </defs>
  <g transform="matrix(1 0 0 1 -926 -362 )">
    <use xlink:href="#widget2" filter="url(#filter1)" />
    <use xlink:href="#widget2" />
  </g>
</svg>